Coordinates
version=1
nRows=8
nColumns=34
inDegrees=yes

Units are S.I. units (second, meters, Newtons, ...)
If the header above contains a line with 'inDegrees', this indicates whether rotational values are in degrees (yes) or radians (no).

endheader
time	pelvis_tilt	pelvis_list	pelvis_rotation	pelvis_tx	pelvis_ty	pelvis_tz	hip_flexion_r	hip_adduction_r	hip_rotation_r	knee_angle_r	ankle_angle_r	subtalar_angle_r	mtp_angle_r	hip_flexion_l	hip_adduction_l	hip_rotation_l	knee_angle_l	ankle_angle_l	subtalar_angle_l	mtp_angle_l	lumbar_extension	lumbar_bending	lumbar_rotation	arm_flex_r	arm_add_r	arm_rot_r	elbow_flex_r	pro_sup_r	arm_flex_l	arm_add_l	arm_rot_l	elbow_flex_l	pro_sup_l
      0.00000000	      4.52400794	      2.17030650	   -176.61935940	      0.08816469	      1.06424040	      0.08877443	     13.65174663	      4.64720023	     -0.90764595	     24.28640097	     -0.02164858	    -15.30569699	      0.00000000	     23.49644678	     -5.35753297	      1.78428118	     68.53012285	    -15.57781066	    -27.84963151	      0.00000000	    -14.98605376	     10.03203186	     -0.82555045	      3.65193617	    -13.08038982	      4.87354616	     74.07504109	     88.14715979	    -12.00508003	    -13.42609596	     13.87019065	     59.52246986	     79.10754800
      0.00833330	      6.01640338	      0.57905258	   -176.75190896	      0.08996153	      1.06290215	      0.08832815	     14.85947699	      3.17421363	      1.26874236	     24.20373097	     -0.48320362	    -18.19600444	      0.00000000	     25.81577719	     -4.50480092	     -0.56761557	     67.39406287	    -18.09445611	    -28.41717331	      0.00000000	    -13.11772866	      7.68233210	     -0.80432740	      4.09995474	    -11.76788067	      5.56498564	     76.13048579	     88.59886313	    -13.76721420	    -14.40437224	     12.27204641	     60.20086033	     79.29306037
      0.01666670	      8.10979930	      0.16790176	   -176.71903453	      0.09100986	      1.06189113	      0.08897492	     16.47683658	      2.18709432	      0.52798824	     24.23551126	      0.41836431	    -16.98087695	      0.00000000	     28.21436026	     -3.39065708	     -0.58593377	     65.54076975	    -19.84698806	    -29.92772258	      0.00000000	    -10.70195376	      6.77776403	     -0.64082755	      3.97736155	    -11.20707883	      5.07028348	     77.86123613	     89.08339457	    -16.16443407	    -15.19626723	     11.21573783	     62.52289251	     79.64315792
      0.02500000	      9.30597359	      0.57331504	   -176.70482582	      0.09202253	      1.06191126	      0.08925739	     17.67898681	      2.27223635	     -0.07292242	     24.95173642	      1.47467887	    -17.47098777	      0.00000000	     30.41607174	     -3.58178652	     -0.77579659	     65.23603032	    -20.01175129	    -32.60030903	      0.00000000	     -9.60284497	      7.22952351	     -0.35063802	      4.07797631	    -10.93625338	      4.62347927	     79.15159508	     89.69122623	    -18.19599428	    -15.43382360	     10.22146362	     64.54363697	     80.12469127
      0.03333330	     10.09469591	      0.58686854	   -176.46187288	      0.09335157	      1.06283740	      0.08953776	     18.19645589	      2.19304187	     -0.34113801	     25.23122414	      2.51370248	    -18.36305412	      0.00000000	     32.35900735	     -3.31809140	     -0.48090219	     64.97691942	    -19.81076315	    -34.58176203	      0.00000000	     -9.10908504	      7.19710319	     -0.26085959	      4.18274888	    -10.75802790	      4.39956169	     80.44782221	     90.45007251	    -19.90588572	    -15.61896357	      9.10134364	     65.85815067	     80.72325933
      0.04166670	     10.51102528	      0.55615230	   -176.27722513	      0.09450349	      1.06439445	      0.08973494	     18.18298095	      2.09213308	     -0.63061178	     25.16098565	      2.70314011	    -18.95535053	      0.00000000	     33.50820143	     -3.14697990	     -0.53451611	     64.11767942	    -18.83993996	    -35.00000000	      0.00000000	     -8.78525166	      7.05999474	     -0.55007828	      5.08053043	    -10.67447129	      4.83772756	     80.71140924	     94.20609609	    -22.12218802	    -15.12264661	      5.44952699	     67.43999857	     84.00122189
      0.05000000	     10.70327725	      0.35416471	   -176.03322411	      0.09530193	      1.06608879	      0.09022579	     17.90323729	      1.89010244	     -0.49068309	     24.88082480	      3.21319591	    -19.29206412	      0.00000000	     34.32055692	     -2.94300684	     -0.80308214	     62.99068320	    -18.36190945	    -35.00000000	      0.00000000	     -8.80809948	      6.94164168	     -0.53157135	      5.62563530	    -10.67210839	      5.01292620	     81.80482367	     94.43284194	    -23.13472442	    -15.64150254	      5.56390020	     67.31263580	     84.25882765
      0.05833330	     11.02977953	      0.26154623	   -175.83437362	      0.09622739	      1.06819164	      0.09079967	     17.76648454	      1.75187841	     -0.51562854	     24.38675520	      3.21844549	    -19.19243732	      0.00000000	     35.15721699	     -2.78859992	     -1.05720096	     61.58366752	    -18.06321608	    -35.00000000	      0.00000000	     -8.72585794	      6.84863800	     -0.07558682	      6.01672352	    -11.07979372	      5.57463370	     83.66218957	     95.02747215	    -24.03849348	    -16.06656711	      5.09483686	     68.22745388	     84.84091117
